<?xml version="1.0" encoding="utf-8"?>
<!-- Generator: Adobe Illustrator 21.0.0, SVG Export Plug-In . SVG Version: 6.00 Build 0)  -->
<svg version="1.1" id="Layer_1" xmlns="http://www.w3.org/2000/svg" xmlns:xlink="http://www.w3.org/1999/xlink" x="0px" y="0px"
	 viewBox="0 0 351 148" style="enable-background:new 0 0 351 148;" xml:space="preserve">
<style type="text/css">
	.st0{fill:#231F20;}
	.st1{fill-opacity:0;}
	.st2{fill:#28AAE1;}
</style>
<path class="st0" d="M77,77.3c-0.6,8.6-3.8,15.4-9.6,20.4c-5.7,5-13.3,7.4-22.7,7.4c-10.3,0-18.4-3.4-24.3-10.3
	c-5.9-6.9-8.8-16.4-8.8-28.5v-4.9c0-7.7,1.4-14.5,4.1-20.4c2.7-5.9,6.6-10.4,11.6-13.5c5.1-3.2,10.9-4.7,17.6-4.7
	c9.2,0,16.7,2.5,22.3,7.4c5.6,5,8.9,11.9,9.8,20.9H60.6c-0.4-5.2-1.9-8.9-4.3-11.2c-2.5-2.3-6.2-3.5-11.3-3.5c-5.5,0-9.6,2-12.4,5.9
	c-2.7,3.9-4.1,10-4.2,18.3v6.1c0,8.7,1.3,15,3.9,19c2.6,4,6.8,6,12.4,6c5.1,0,8.9-1.2,11.4-3.5c2.5-2.3,4-6,4.3-10.8H77z"/>
<rect x="99.1" y="18.4" class="st1" width="84.7" height="84.7"/>
<rect x="99.1" y="18.4" class="st1" width="84.7" height="84.7"/>
<rect x="111.4" y="31.6" class="st1" width="60.6" height="60.6"/>
<path class="st2" d="M141.7,78.5c-9.2,0-16.6-7.4-16.6-16.6c0-9.2,7.4-16.6,16.6-16.6c9.2,0,16.6,7.4,16.6,16.6
	C158.3,71.1,150.9,78.5,141.7,78.5z M141.7,31.6c-16.7,0-30.3,13.6-30.3,30.3c0,16.7,13.6,30.3,30.3,30.3
	c16.7,0,30.3-13.6,30.3-30.3C172,45.2,158.4,31.6,141.7,31.6z"/>
<path class="st2" d="M147.5,34.9h-11.6V18.4h11.6V34.9z"/>
<path class="st2" d="M147.2,103.1h-11.6V86.6h11.6V103.1z"/>
<rect x="107.8" y="26.6" class="st1" width="19.8" height="19.8"/>
<path class="st2" d="M127.6,38.3l-8.2,8.2l-11.7-11.7l8.2-8.2L127.6,38.3z"/>
<rect x="155.8" y="75" class="st1" width="19.8" height="19.8"/>
<path class="st2" d="M175.6,86.7l-8.2,8.2l-11.7-11.7L164,75L175.6,86.7z"/>
<path class="st2" d="M115.6,66.4H99.1V54.8h16.5V66.4z"/>
<path class="st2" d="M183.8,66.7h-16.5V55.1h16.5V66.7z"/>
<rect x="107.3" y="74.7" class="st1" width="19.8" height="19.8"/>
<path class="st2" d="M119,74.7l8.2,8.2l-11.7,11.7l-8.2-8.2L119,74.7z"/>
<rect x="155.7" y="26.7" class="st1" width="19.8" height="19.8"/>
<path class="st2" d="M167.4,26.7l8.2,8.2l-11.7,11.7l-8.2-8.2L167.4,26.7z"/>
<path class="st0" d="M228.6,74.7h-13.2V104h-16.5V23.9h29.8c9.5,0,16.8,2.1,21.9,6.3c5.1,4.2,7.7,10.2,7.7,17.9
	c0,5.5-1.2,10-3.6,13.7c-2.3,3.6-5.9,6.5-10.7,8.7l17.3,32.7v0.8h-17.7L228.6,74.7z M215.4,61.3h13.3c4.1,0,7.4-1,9.6-3.1
	c2.3-2.1,3.4-5,3.4-8.7c0-3.8-1.1-6.7-3.2-8.9c-2.1-2.2-5.4-3.2-9.8-3.2h-13.3V61.3z M329.1,69.3h-31.7v21.5h37.2V104h-53.7V23.9
	h53.6v13.4h-37.1v19.1h31.7V69.3z"/>
<path class="st0" d="M15.2,137.8c-0.2,1.3-0.6,2.3-1.4,3c-0.8,0.7-1.9,1.1-3.2,1.1c-1.4,0-2.6-0.5-3.5-1.6c-0.9-1-1.3-2.4-1.3-4.2
	V135c0-1.1,0.2-2.1,0.6-3c0.4-0.9,1-1.5,1.7-2c0.7-0.5,1.6-0.7,2.6-0.7c1.3,0,2.3,0.4,3.1,1.1c0.8,0.7,1.2,1.7,1.4,3h-1.6
	c-0.1-1-0.4-1.7-0.9-2.1c-0.5-0.4-1.1-0.7-2-0.7c-1,0-1.8,0.4-2.4,1.1c-0.6,0.8-0.9,1.9-0.9,3.3v1.2c0,1.3,0.3,2.4,0.8,3.2
	c0.6,0.8,1.3,1.2,2.3,1.2c0.9,0,1.6-0.2,2.1-0.6c0.5-0.4,0.8-1.1,1-2.1H15.2z M26.8,136c0,1.2-0.2,2.3-0.6,3.2c-0.4,0.9-1,1.6-1.7,2
	s-1.6,0.7-2.6,0.7c-1,0-1.8-0.2-2.6-0.7c-0.7-0.5-1.3-1.2-1.7-2c-0.4-0.9-0.6-1.9-0.6-3.1v-0.9c0-1.2,0.2-2.2,0.6-3.1
	c0.4-0.9,1-1.6,1.7-2.1c0.8-0.5,1.6-0.7,2.6-0.7c1,0,1.8,0.2,2.6,0.7c0.8,0.5,1.3,1.2,1.7,2.1c0.4,0.9,0.6,1.9,0.6,3.1V136z
	 M25.2,135.2c0-1.5-0.3-2.6-0.9-3.3c-0.6-0.8-1.4-1.2-2.5-1.2c-1,0-1.8,0.4-2.4,1.2c-0.6,0.8-0.9,1.9-0.9,3.2v0.9
	c0,1.4,0.3,2.5,0.9,3.3c0.6,0.8,1.4,1.2,2.5,1.2c1,0,1.9-0.4,2.4-1.1c0.6-0.8,0.9-1.9,0.9-3.3V135.2z M31.3,129.4l4,10l4-10h2.1
	v12.3h-1.6v-4.8l0.2-5.2l-4,9.9h-1.2l-4-9.9l0.2,5.1v4.8h-1.6v-12.3H31.3z M45.9,136.9v4.8h-1.6v-12.3h4.5c1.3,0,2.4,0.3,3.2,1
	c0.8,0.7,1.1,1.6,1.1,2.7c0,1.2-0.4,2.1-1.1,2.8c-0.7,0.6-1.8,1-3.2,1H45.9z M45.9,135.6h2.9c0.9,0,1.5-0.2,2-0.6
	c0.5-0.4,0.7-1,0.7-1.8c0-0.7-0.2-1.3-0.7-1.8c-0.5-0.4-1.1-0.7-1.9-0.7h-3V135.6z M63.9,129.4v8.3c0,1.2-0.4,2.1-1.1,2.8
	c-0.7,0.7-1.7,1.1-2.9,1.2l-0.4,0c-1.3,0-2.4-0.4-3.2-1.1c-0.8-0.7-1.2-1.7-1.2-3v-8.4h1.6v8.3c0,0.9,0.2,1.6,0.7,2.1
	c0.5,0.5,1.2,0.7,2.1,0.7c0.9,0,1.6-0.2,2.1-0.7c0.5-0.5,0.7-1.2,0.7-2.1v-8.3H63.9z M74.9,130.8h-3.9v10.9h-1.6v-10.9h-3.9v-1.3
	h9.5V130.8z M83.7,136h-5.3v4.3h6.2v1.3h-7.8v-12.3h7.7v1.3h-6.1v3.9h5.3V136z M91,136.7h-2.9v5h-1.6v-12.3h4.1
	c1.4,0,2.4,0.3,3.2,0.9c0.7,0.6,1.1,1.5,1.1,2.7c0,0.8-0.2,1.4-0.6,2c-0.4,0.6-1,1-1.7,1.3l2.9,5.2v0.1h-1.7L91,136.7z M88.1,135.4
	h2.5c0.8,0,1.4-0.2,1.9-0.6c0.5-0.4,0.7-1,0.7-1.7c0-0.8-0.2-1.3-0.7-1.7c-0.4-0.4-1.1-0.6-2-0.6h-2.5V135.4z M100.8,136.2
	c-1.4-0.4-2.4-0.9-3-1.5c-0.6-0.6-0.9-1.3-0.9-2.2c0-1,0.4-1.8,1.2-2.4c0.8-0.6,1.8-1,3-1c0.8,0,1.6,0.2,2.3,0.5
	c0.7,0.3,1.2,0.8,1.5,1.3c0.4,0.6,0.5,1.2,0.5,1.9h-1.6c0-0.7-0.2-1.3-0.7-1.7c-0.5-0.4-1.1-0.6-2-0.6c-0.8,0-1.4,0.2-1.9,0.5
	c-0.4,0.3-0.7,0.8-0.7,1.5c0,0.5,0.2,0.9,0.6,1.3c0.4,0.3,1.1,0.7,2.2,0.9c1,0.3,1.8,0.6,2.4,1c0.6,0.3,1,0.7,1.3,1.2
	c0.3,0.5,0.4,1,0.4,1.6c0,1-0.4,1.8-1.2,2.4c-0.8,0.6-1.8,0.9-3.1,0.9c-0.8,0-1.6-0.2-2.4-0.5c-0.7-0.3-1.3-0.8-1.7-1.3
	c-0.4-0.6-0.6-1.2-0.6-1.9H98c0,0.7,0.3,1.3,0.8,1.8c0.6,0.4,1.3,0.6,2.2,0.6c0.9,0,1.5-0.2,2-0.5c0.5-0.3,0.7-0.8,0.7-1.4
	c0-0.6-0.2-1.1-0.6-1.4C102.7,136.9,101.9,136.6,100.8,136.2z M116.2,136.7h-2.9v5h-1.6v-12.3h4.1c1.4,0,2.4,0.3,3.2,0.9
	c0.7,0.6,1.1,1.5,1.1,2.7c0,0.8-0.2,1.4-0.6,2c-0.4,0.6-1,1-1.7,1.3l2.9,5.2v0.1h-1.7L116.2,136.7z M113.3,135.4h2.5
	c0.8,0,1.4-0.2,1.9-0.6c0.5-0.4,0.7-1,0.7-1.7c0-0.8-0.2-1.3-0.7-1.7c-0.4-0.4-1.1-0.6-2-0.6h-2.5V135.4z M131.8,136
	c0,1.2-0.2,2.3-0.6,3.2c-0.4,0.9-1,1.6-1.7,2c-0.7,0.5-1.6,0.7-2.6,0.7c-1,0-1.8-0.2-2.6-0.7c-0.7-0.5-1.3-1.2-1.7-2
	c-0.4-0.9-0.6-1.9-0.6-3.1v-0.9c0-1.2,0.2-2.2,0.6-3.1c0.4-0.9,1-1.6,1.7-2.1c0.8-0.5,1.6-0.7,2.6-0.7c1,0,1.8,0.2,2.6,0.7
	c0.8,0.5,1.3,1.2,1.7,2.1c0.4,0.9,0.6,1.9,0.6,3.1V136z M130.2,135.2c0-1.5-0.3-2.6-0.9-3.3c-0.6-0.8-1.4-1.2-2.5-1.2
	c-1,0-1.8,0.4-2.4,1.2c-0.6,0.8-0.9,1.9-0.9,3.2v0.9c0,1.4,0.3,2.5,0.9,3.3c0.6,0.8,1.4,1.2,2.5,1.2c1,0,1.9-0.4,2.4-1.1
	c0.6-0.8,0.9-1.9,0.9-3.3V135.2z M134.2,141.7v-12.3h4c1.3,0,2.3,0.3,3,0.8c0.7,0.6,1,1.4,1,2.4c0,0.6-0.2,1.1-0.5,1.5
	c-0.3,0.4-0.8,0.8-1.3,1c0.7,0.2,1.2,0.5,1.6,1.1c0.4,0.5,0.6,1.1,0.6,1.9c0,1.1-0.4,2-1.1,2.6c-0.7,0.6-1.7,0.9-3,0.9H134.2z
	 M135.8,136v4.4h2.7c0.8,0,1.3-0.2,1.8-0.6c0.4-0.4,0.7-0.9,0.7-1.6c0-1.5-0.8-2.2-2.4-2.2H135.8z M135.8,134.7h2.4
	c0.7,0,1.3-0.2,1.7-0.5c0.4-0.4,0.6-0.8,0.6-1.4c0-0.7-0.2-1.2-0.6-1.5c-0.4-0.3-1-0.5-1.8-0.5h-2.4V134.7z M154.4,136
	c0,1.2-0.2,2.3-0.6,3.2c-0.4,0.9-1,1.6-1.7,2c-0.7,0.5-1.6,0.7-2.6,0.7c-1,0-1.8-0.2-2.6-0.7c-0.7-0.5-1.3-1.2-1.7-2
	c-0.4-0.9-0.6-1.9-0.6-3.1v-0.9c0-1.2,0.2-2.2,0.6-3.1c0.4-0.9,1-1.6,1.7-2.1c0.8-0.5,1.6-0.7,2.6-0.7c1,0,1.8,0.2,2.6,0.7
	c0.8,0.5,1.3,1.2,1.7,2.1c0.4,0.9,0.6,1.9,0.6,3.1V136z M152.8,135.2c0-1.5-0.3-2.6-0.9-3.3c-0.6-0.8-1.4-1.2-2.5-1.2
	c-1,0-1.8,0.4-2.4,1.2c-0.6,0.8-0.9,1.9-0.9,3.2v0.9c0,1.4,0.3,2.5,0.9,3.3c0.6,0.8,1.4,1.2,2.5,1.2c1,0,1.9-0.4,2.4-1.1
	c0.6-0.8,0.9-1.9,0.9-3.3V135.2z M165.1,130.8h-3.9v10.9h-1.6v-10.9h-3.9v-1.3h9.5V130.8z M168.6,141.7H167v-12.3h1.6V141.7z
	 M180.6,137.8c-0.2,1.3-0.6,2.3-1.4,3c-0.8,0.7-1.9,1.1-3.2,1.1c-1.4,0-2.6-0.5-3.5-1.6c-0.9-1-1.3-2.4-1.3-4.2V135
	c0-1.1,0.2-2.1,0.6-3c0.4-0.9,1-1.5,1.7-2c0.7-0.5,1.6-0.7,2.6-0.7c1.3,0,2.3,0.4,3.1,1.1c0.8,0.7,1.2,1.7,1.4,3H179
	c-0.1-1-0.4-1.7-0.9-2.1c-0.5-0.4-1.1-0.7-2-0.7c-1,0-1.8,0.4-2.4,1.1c-0.6,0.8-0.9,1.9-0.9,3.3v1.2c0,1.3,0.3,2.4,0.8,3.2
	c0.6,0.8,1.3,1.2,2.3,1.2c0.9,0,1.6-0.2,2.1-0.6c0.5-0.4,0.8-1.1,1-2.1H180.6z M186.5,136.2c-1.4-0.4-2.4-0.9-3-1.5
	c-0.6-0.6-0.9-1.3-0.9-2.2c0-1,0.4-1.8,1.2-2.4c0.8-0.6,1.8-1,3-1c0.8,0,1.6,0.2,2.2,0.5c0.7,0.3,1.2,0.8,1.5,1.3
	c0.4,0.6,0.5,1.2,0.5,1.9h-1.6c0-0.7-0.2-1.3-0.7-1.7c-0.5-0.4-1.1-0.6-2-0.6c-0.8,0-1.4,0.2-1.9,0.5c-0.4,0.3-0.7,0.8-0.7,1.5
	c0,0.5,0.2,0.9,0.6,1.3c0.4,0.3,1.1,0.7,2.2,0.9c1,0.3,1.8,0.6,2.4,1c0.6,0.3,1,0.7,1.3,1.2c0.3,0.5,0.4,1,0.4,1.6
	c0,1-0.4,1.8-1.2,2.4c-0.8,0.6-1.8,0.9-3.1,0.9c-0.8,0-1.6-0.2-2.4-0.5c-0.7-0.3-1.3-0.8-1.7-1.3c-0.4-0.6-0.6-1.2-0.6-1.9h1.6
	c0,0.7,0.3,1.3,0.8,1.8c0.6,0.4,1.3,0.6,2.2,0.6c0.9,0,1.5-0.2,2-0.5c0.5-0.3,0.7-0.8,0.7-1.4c0-0.6-0.2-1.1-0.6-1.4
	C188.3,136.9,187.6,136.6,186.5,136.2z M204.2,138.5H199l-1.2,3.2h-1.7l4.7-12.3h1.4l4.7,12.3h-1.7L204.2,138.5z M199.5,137.2h4.2
	l-2.1-5.7L199.5,137.2z M218.1,141.7h-1.6l-6.2-9.5v9.5h-1.6v-12.3h1.6l6.2,9.5v-9.5h1.6V141.7z M220.9,141.7v-12.3h3.5
	c1.1,0,2,0.2,2.8,0.7c0.8,0.5,1.5,1.1,1.9,2c0.4,0.9,0.7,1.9,0.7,3v0.8c0,1.2-0.2,2.2-0.7,3c-0.4,0.9-1.1,1.5-1.9,2
	c-0.8,0.5-1.8,0.7-2.9,0.7H220.9z M222.6,130.8v9.6h1.7c1.2,0,2.2-0.4,2.9-1.2c0.7-0.8,1-1.9,1-3.3v-0.7c0-1.4-0.3-2.5-1-3.2
	c-0.7-0.8-1.6-1.2-2.8-1.2H222.6z M243.5,136h-5.3v4.3h6.2v1.3h-7.8v-12.3h7.7v1.3h-6.1v3.9h5.3V136z M255.8,141.7h-1.6l-6.2-9.5
	v9.5h-1.6v-12.3h1.6l6.2,9.5v-9.5h1.6V141.7z M267.7,140.1c-0.4,0.6-1,1-1.7,1.3c-0.7,0.3-1.6,0.4-2.6,0.4c-1,0-1.9-0.2-2.7-0.7
	c-0.8-0.5-1.4-1.1-1.8-2c-0.4-0.9-0.6-1.9-0.6-3v-1.1c0-1.8,0.4-3.3,1.3-4.3c0.9-1,2.1-1.5,3.6-1.5c1.3,0,2.3,0.3,3.1,1
	c0.8,0.7,1.3,1.6,1.4,2.8h-1.6c-0.3-1.6-1.3-2.4-2.9-2.4c-1.1,0-1.9,0.4-2.5,1.1c-0.6,0.8-0.8,1.9-0.8,3.3v1c0,1.4,0.3,2.5,0.9,3.3
	c0.6,0.8,1.5,1.2,2.6,1.2c0.6,0,1.1-0.1,1.6-0.2c0.5-0.1,0.8-0.4,1.1-0.7v-2.8h-2.8v-1.3h4.5V140.1z M272.2,141.7h-1.6v-12.3h1.6
	V141.7z M284.6,141.7H283l-6.2-9.5v9.5h-1.6v-12.3h1.6l6.2,9.5v-9.5h1.6V141.7z M294.4,136h-5.3v4.3h6.2v1.3h-7.8v-12.3h7.7v1.3
	h-6.1v3.9h5.3V136z M304.2,136h-5.3v4.3h6.2v1.3h-7.8v-12.3h7.7v1.3h-6.1v3.9h5.3V136z M311.6,136.7h-2.9v5h-1.6v-12.3h4.1
	c1.4,0,2.4,0.3,3.2,0.9c0.7,0.6,1.1,1.5,1.1,2.7c0,0.8-0.2,1.4-0.6,2c-0.4,0.6-1,1-1.7,1.3l2.9,5.2v0.1h-1.7L311.6,136.7z
	 M308.7,135.4h2.5c0.8,0,1.4-0.2,1.9-0.6c0.5-0.4,0.7-1,0.7-1.7c0-0.8-0.2-1.3-0.7-1.7c-0.4-0.4-1.1-0.6-2-0.6h-2.5V135.4z
	 M319.5,141.7h-1.6v-12.3h1.6V141.7z M331.9,141.7h-1.6l-6.2-9.5v9.5h-1.6v-12.3h1.6l6.2,9.5v-9.5h1.6V141.7z M343.8,140.1
	c-0.4,0.6-1,1-1.7,1.3c-0.7,0.3-1.6,0.4-2.6,0.4c-1,0-1.9-0.2-2.7-0.7c-0.8-0.5-1.4-1.1-1.8-2c-0.4-0.9-0.6-1.9-0.6-3v-1.1
	c0-1.8,0.4-3.3,1.3-4.3c0.9-1,2.1-1.5,3.6-1.5c1.3,0,2.3,0.3,3.1,1c0.8,0.7,1.3,1.6,1.4,2.8h-1.6c-0.3-1.6-1.3-2.4-2.9-2.4
	c-1.1,0-1.9,0.4-2.5,1.1c-0.6,0.8-0.8,1.9-0.8,3.3v1c0,1.4,0.3,2.5,0.9,3.3c0.6,0.8,1.5,1.2,2.6,1.2c0.6,0,1.1-0.1,1.6-0.2
	c0.5-0.1,0.8-0.4,1.1-0.7v-2.8h-2.8v-1.3h4.5V140.1z"/>
</svg>
